# xmcd
#
# Track frame offsets:
# 150
# 16242
# 34000
# 56413
# 73758
# 89223
# 119114
# 132454
# 154933
# 172348
# 189996
# 210595
# 231507
# 250277
# 267329
# 287377
# 303641
#
# Disc length: 4244 seconds
#
#
# Revision: 0
# Processed by: cddbd v1.5.1PL0 Copyright (c) Steve Scherf et al.
# Submitted via: FreeRIP 2.92 
#
DISCID=08109211
DTITLE=Kirk Fletcher - Shades Of Blue
DYEAR=2004
DGENRE=Blues
TTITLE0=Blues For Boo Boo
TTITLE1=Bad Boy
TTITLE2=Welfare Blues
TTITLE3=Don't Go No Further
TTITLE4=Club Zanzibar [Instr.]
TTITLE5=That's Why I'm Cryin'
TTITLE6=Worried Man Blues
TTITLE7=Country Girl
TTITLE8=Down Home Woman
TTITLE9=Stranded In St. Louis
TTITLE10=Little By Little
TTITLE11=My Home Is A Prison
TTITLE12=A River's Invitation
TTITLE13=Hip Hug Her [Instr.]
TTITLE14=You Don't Know
TTITLE15=Club Zanzibar
TTITLE16=Don't Go No Further
EXTD=
EXTT0=
EXTT1=
EXTT2=
EXTT3=
EXTT4=
EXTT5=
EXTT6=
EXTT7=
EXTT8=
EXTT9=
EXTT10=
EXTT11=
EXTT12=
EXTT13=
EXTT14=
EXTT15=
EXTT16=
PLAYORDER=
